<?xml version="1.0" ?><svg id="Layer_1" style="enable-background:new 0 0 512 512;" version="1.1" viewBox="0 0 512 512" xml:space="preserve" xmlns="http://www.w3.org/2000/svg" xmlns:xlink="http://www.w3.org/1999/xlink"><style type="text/css">
	.st0{fill:#F2F2F1;}
	.st1{fill:#D3D2D0;}
	.st2{fill:#35BCE9;}
	.st3{fill:#1EA4D1;}
	.st4{fill:#1C9AC4;}
	.st5{fill:#FFFFFF;}
</style><title/><g id="Layer_2"><g id="Layer_1-2"><path class="st0" d="M363.8,103.7v304.6c0,14.8-12,26.9-26.9,26.9l0,0H140.5c-14.8,0-26.9-12-26.9-26.9l0,0V163.9l87.2-87.1h136.1    C351.8,76.8,363.8,88.8,363.8,103.7z"/><path class="st1" d="M113.7,163.9l87.1-87.1v60.4c0,14.8-12,26.8-26.8,26.8L113.7,163.9z"/><polygon class="st1" points="363.8,309.1 363.8,400.4 196.6,400.4 140.2,385.5 113.7,385.5 113.7,324.1 140.2,324.1 140.2,324     196.6,309.1   "/><path class="st2" d="M196.6,298.3h194.1c11.9,0,21.6,9.7,21.6,21.6l0,0V368c0,11.9-9.7,21.6-21.6,21.6l0,0H196.6l0,0V298.3    L196.6,298.3z"/><polygon class="st3" points="196.6,389.6 140.2,374.6 140.2,313.2 196.6,298.3   "/><rect class="st2" height="61.4" width="40.6" x="99.7" y="313.3"/><polygon class="st4" points="99.7,313.3 113.7,305 113.7,313.3   "/><polygon class="st4" points="99.7,374.6 113.7,383 113.7,374.6   "/><path class="st5" d="M267.5,365.9h-20.3l-3.1,8.5h-16l23.4-58.4h11.8l23.2,58.4h-16.2L267.5,365.9z M251.3,354h12.2l-6-20    L251.3,354z"/><path class="st5" d="M281.9,315.9h15.4l11.8,41l11.8-41h15.4l-19.6,58.4h-15.3L281.9,315.9z"/><path class="st5" d="M340.5,374.3v-58.4h14.9v58.4L340.5,374.3z"/></g></g></svg>