<?xml version="1.0" ?><svg id="Layer_1" style="enable-background:new 0 0 512 512;" version="1.1" viewBox="0 0 512 512" xml:space="preserve" xmlns="http://www.w3.org/2000/svg" xmlns:xlink="http://www.w3.org/1999/xlink"><style type="text/css">
	.st0{fill:#F2F2F1;}
	.st1{fill:#D3D2D0;}
	.st2{fill:#35BCE9;}
	.st3{fill:#1EA4D1;}
	.st4{fill:#1C9AC4;}
	.st5{fill:#FFFFFF;}
</style><title/><g id="Layer_2"><g id="Layer_1-2"><path class="st0" d="M363.8,103.7v304.6c0,14.8-12,26.9-26.9,26.9l0,0H140.5c-14.8,0-26.9-12-26.9-26.9l0,0V163.9l87.2-87.1h136.1    C351.8,76.8,363.8,88.8,363.8,103.7z"/><path class="st1" d="M113.7,163.9l87.1-87.1v60.4c0,14.8-12,26.8-26.8,26.8L113.7,163.9z"/><polygon class="st1" points="363.8,309.1 363.8,400.4 196.6,400.4 140.2,385.5 113.7,385.5 113.7,324.1 140.2,324.1 140.2,324     196.6,309.1   "/><path class="st2" d="M196.6,298.3h194.1c11.9,0,21.6,9.7,21.6,21.6l0,0V368c0,11.9-9.7,21.6-21.6,21.6l0,0H196.6l0,0V298.3    L196.6,298.3z"/><polygon class="st3" points="196.6,389.6 140.2,374.6 140.2,313.2 196.6,298.3   "/><rect class="st2" height="61.4" width="40.6" x="99.7" y="313.3"/><polygon class="st4" points="99.7,313.3 113.7,305 113.7,313.3   "/><polygon class="st4" points="99.7,374.6 113.7,383 113.7,374.6   "/><path class="st5" d="M251.5,362.3c6.2,0,10.9-3.3,14.1-9.8h15.6c-0.8,3.3-2.1,6.5-4,9.4c-1.8,2.8-4.1,5.2-6.7,7.2    c-2.6,2-5.6,3.6-8.7,4.7c-7.3,2.4-15.2,2.2-22.3-0.7c-3.6-1.5-6.9-3.7-9.7-6.5c-2.8-2.8-5-6.1-6.5-9.7    c-4.9-11.4-2.3-24.6,6.4-33.4c9.8-9.4,24.6-11.5,36.7-5.2c4.5,2.5,8.3,6.1,11,10.5c0.7,1,1.2,1.9,1.6,2.6c0.4,0.7,0.7,1.4,1,2.1    c0.3,0.7,0.5,1.4,0.7,2.1c0.2,0.7,0.4,1.6,0.5,2.5h-15.6c-1.1-3-3-5.6-5.6-7.5c-2.5-1.8-5.5-2.8-8.6-2.8c-2.1,0-4.2,0.4-6.2,1.3    c-1.9,0.9-3.6,2.1-4.9,3.6c-1.4,1.6-2.5,3.4-3.3,5.4c-0.8,2.2-1.2,4.5-1.2,6.8c0,2.3,0.4,4.7,1.2,6.8c0.8,2,1.9,3.9,3.3,5.5    c1.4,1.6,3.1,2.8,4.9,3.7C247.3,361.9,249.4,362.4,251.5,362.3z"/><path class="st5" d="M321.3,321.4c0.6,0.8,1.2,1.6,1.8,2.5c0.5,0.8,0.9,1.6,1.1,2.5c0.3,0.9,0.5,1.9,0.7,2.9    c0.1,1.1,0.3,2.3,0.4,3.7h-14.7c-0.1-1.6-0.7-3.1-1.7-4.3c-1-0.9-2.3-1.4-3.7-1.3c-1.3,0-2.6,0.4-3.7,1.3c-1,0.8-1.5,1.9-1.5,3.1    c0,2.3,1.7,4.3,5,5.8l7.2,3.2c4.9,2.2,8.4,4.6,10.5,7.2c2.1,2.7,3.2,6.1,3.1,9.6c0,5.7-1.8,10.1-5.4,13.2s-8.6,4.7-15,4.7    c-3,0-6-0.4-8.8-1.3c-2.4-0.8-4.7-2-6.7-3.7c-1.8-1.6-3.3-3.6-4.3-5.8c-1-2.4-1.5-5.1-1.5-7.7v-1.9h15c-0.1,2.1,0.5,4.1,1.6,5.8    c1,1.4,2.7,2.2,4.4,2.1c1.5,0,3-0.5,4.1-1.6c1.1-1,1.7-2.5,1.7-4c0-1.3-0.5-2.6-1.5-3.5c-1.4-1.2-3-2.2-4.8-2.8    c-1.8-0.8-3.2-1.4-4.4-1.8c-1.1-0.4-1.9-0.8-2.4-1c-1.3-0.6-2.6-1.2-3.8-1.9c-1.1-0.7-2.2-1.4-3.3-2.2c-1.8-1.5-3.3-3.3-4.3-5.4    c-2.1-4.3-2.1-9.3,0-13.5c1.1-2.1,2.5-4,4.3-5.5c2-1.6,4.2-2.8,6.6-3.6c2.6-0.9,5.3-1.3,8.1-1.3c3.1,0,6.2,0.6,9,1.8    C317.2,317.6,319.5,319.3,321.3,321.4z"/><path class="st5" d="M366.5,321.4c0.6,0.8,1.2,1.6,1.8,2.5c0.5,0.8,0.9,1.6,1.1,2.5c0.3,0.9,0.5,1.9,0.7,2.9    c0.1,1.1,0.3,2.3,0.4,3.7h-14.7c-0.1-1.6-0.7-3.1-1.7-4.3c-1-0.9-2.3-1.4-3.7-1.3c-1.3,0-2.6,0.4-3.7,1.3c-1,0.8-1.5,1.9-1.5,3.1    c0,2.3,1.7,4.3,5,5.8l7.2,3.2c4.9,2.2,8.4,4.6,10.5,7.2c2.1,2.7,3.2,6.1,3.1,9.6c0,5.7-1.8,10.1-5.4,13.2c-3.6,3.1-8.6,4.7-15,4.7    c-3,0-6-0.4-8.8-1.3c-2.4-0.8-4.7-2-6.7-3.7c-1.8-1.6-3.3-3.6-4.3-5.8c-1-2.4-1.5-5.1-1.5-7.7v-1.9h15c-0.1,2.1,0.5,4.1,1.6,5.8    c1,1.4,2.7,2.2,4.4,2.1c1.5,0,3-0.5,4.1-1.6c1.1-1,1.7-2.5,1.7-4c0-1.3-0.5-2.6-1.5-3.5c-1.4-1.2-3-2.2-4.8-2.8    c-1.8-0.8-3.2-1.4-4.4-1.8c-1.1-0.4-1.9-0.8-2.4-1c-1.3-0.6-2.6-1.2-3.8-1.9c-1.1-0.7-2.2-1.4-3.3-2.2c-1.8-1.5-3.3-3.3-4.3-5.4    c-2.1-4.3-2.1-9.3,0-13.5c1.1-2.1,2.5-4,4.3-5.5c1.9-1.6,4.1-2.8,6.5-3.6c2.6-0.9,5.3-1.3,8.1-1.3c3.1,0,6.2,0.6,9,1.8    C362.3,317.6,364.7,319.3,366.5,321.4z"/></g></g></svg>