<?xml version="1.0" ?><svg id="Layer_1" style="enable-background:new 0 0 512 512;" version="1.1" viewBox="0 0 512 512" xml:space="preserve" xmlns="http://www.w3.org/2000/svg" xmlns:xlink="http://www.w3.org/1999/xlink"><style type="text/css">
	.st0{fill:#F1F2F1;}
	.st1{fill:#D1D3D0;}
	.st2{fill:#AD35E9;}
	.st3{fill:#941DCF;}
	.st4{fill:#8E1CC4;}
	.st5{fill:#FFFFFF;}
</style><title/><g id="Layer_2"><g id="Layer_1-2"><path class="st0" d="M363.8,103.7v304.6c0,14.8-12,26.9-26.9,26.9l0,0H140.5c-14.8,0-26.9-12-26.9-26.9l0,0V163.9l87.2-87.1h136.1    C351.8,76.8,363.8,88.8,363.8,103.7z"/><path class="st1" d="M113.7,163.9l87.1-87.1v60.4c0,14.8-12,26.8-26.8,26.8L113.7,163.9z"/><polygon class="st1" points="363.8,309.1 363.8,400.4 196.6,400.4 140.2,385.5 113.7,385.5 113.7,324.1 140.2,324.1 140.2,324     196.6,309.1   "/><path class="st2" d="M196.6,298.3h194.1c11.9,0,21.6,9.7,21.6,21.6l0,0V368c0,11.9-9.7,21.6-21.6,21.6l0,0H196.6l0,0V298.3    L196.6,298.3z"/><polygon class="st3" points="196.6,389.6 140.2,374.6 140.2,313.2 196.6,298.3   "/><rect class="st2" height="61.4" width="40.6" x="99.7" y="313.3"/><polygon class="st4" points="99.7,313.3 113.7,305 113.7,313.3   "/><polygon class="st4" points="99.7,374.6 113.7,383 113.7,374.6   "/><path class="st5" d="M217.1,374.3v-58.4h19.2l11.6,38.5l11.6-38.5h19.3v58.4H265l0.5-43.8l-12.6,43.9H243l-12.6-43.9l0.4,43.9    L217.1,374.3z"/><path class="st5" d="M316.9,375.5c-4.1,0-8.3-0.8-12.1-2.3c-11.3-4.6-18.7-15.7-18.6-27.9c-0.1-8.2,3.1-16,8.9-21.8    c2.8-2.8,6.1-5,9.7-6.4c7.8-3.1,16.5-3.1,24.3,0c3.7,1.5,7,3.7,9.8,6.4c5.8,5.7,9,13.5,9,21.6c0,4.1-0.8,8.2-2.4,12    c-1.5,3.6-3.8,6.8-6.6,9.6c-2.8,2.8-6.2,4.9-9.8,6.4C325.3,374.7,321.1,375.5,316.9,375.5z M317.1,327.9c-4.3,0-8.5,1.7-11.4,4.9    c-1.4,1.6-2.6,3.4-3.3,5.4c-0.8,2.2-1.3,4.5-1.2,6.8c0,2.3,0.4,4.7,1.2,6.9c0.8,2,1.9,3.9,3.4,5.5c1.4,1.6,3.2,2.8,5.1,3.6    c2,0.9,4.2,1.3,6.4,1.3c2.1,0,4.3-0.4,6.2-1.3c1.9-0.8,3.6-2.1,5-3.6c1.4-1.6,2.6-3.4,3.3-5.4c0.8-2.2,1.2-4.4,1.2-6.7    c0-2.3-0.4-4.6-1.2-6.8c-0.8-2-1.9-3.9-3.4-5.5c-1.4-1.6-3.1-2.8-5-3.7C321.4,328.4,319.3,327.9,317.1,327.9L317.1,327.9z"/><path class="st5" d="M348.1,315.9h15.4l11.8,41l11.8-41h15.4l-19.6,58.4h-15.3L348.1,315.9z"/></g></g></svg>