<?xml version="1.0" ?><svg id="Layer_1" style="enable-background:new 0 0 512 512;" version="1.1" viewBox="0 0 512 512" xml:space="preserve" xmlns="http://www.w3.org/2000/svg" xmlns:xlink="http://www.w3.org/1999/xlink"><style type="text/css">
	.st0{fill:#F2F2F1;}
	.st1{fill:#D3D2D0;}
	.st2{fill:#343C4F;}
	.st3{fill:#1E2537;}
	.st4{fill:#181D2A;}
	.st5{fill:#FFFFFF;}
</style><title/><g id="Layer_2"><g id="Layer_1-2"><path class="st0" d="M363.8,103.7v304.6c0,14.8-12,26.9-26.9,26.9l0,0H140.5c-14.8,0-26.9-12-26.9-26.9l0,0V163.9l87.2-87.1h136.1    C351.8,76.8,363.8,88.8,363.8,103.7z"/><path class="st1" d="M113.7,163.9l87.1-87.1v60.4c0,14.8-12,26.8-26.8,26.8L113.7,163.9z"/><polygon class="st1" points="363.8,309.1 363.8,400.4 196.6,400.4 140.2,385.5 113.7,385.5 113.7,324.1 140.2,324.1 140.2,324     196.6,309.1   "/><path class="st2" d="M196.6,298.3h194.1c11.9,0,21.6,9.7,21.6,21.6l0,0V368c0,11.9-9.7,21.6-21.6,21.6l0,0H196.6l0,0V298.3    L196.6,298.3z"/><polygon class="st3" points="196.6,389.6 140.2,374.6 140.2,313.2 196.6,298.3   "/><rect class="st2" height="61.4" width="40.6" x="99.7" y="313.3"/><polygon class="st4" points="99.7,313.3 113.7,305 113.7,313.3   "/><polygon class="st4" points="99.7,374.6 113.7,383 113.7,374.6   "/><path class="st5" d="M254.1,375.5c-4.1,0-8.3-0.8-12.1-2.3c-11.3-4.6-18.7-15.7-18.6-27.9c-0.1-8.2,3.1-16,8.9-21.8    c2.8-2.8,6.1-5,9.7-6.4c7.8-3.1,16.5-3.1,24.3,0c3.7,1.5,7,3.7,9.8,6.4c5.8,5.7,9,13.5,9,21.6c0,4.1-0.8,8.2-2.4,11.9    c-1.5,3.6-3.8,6.8-6.6,9.6c-2.8,2.8-6.2,4.9-9.8,6.4C262.4,374.7,258.3,375.5,254.1,375.5z M254.2,327.9c-4.3,0-8.5,1.7-11.4,4.9    c-1.4,1.6-2.6,3.4-3.3,5.4c-0.8,2.2-1.3,4.5-1.2,6.8c0,2.3,0.4,4.7,1.2,6.9c0.8,2,1.9,3.9,3.4,5.5c1.4,1.6,3.2,2.8,5.1,3.6    c2,0.9,4.2,1.3,6.4,1.3c2.1,0,4.3-0.4,6.2-1.3c1.9-0.8,3.6-2.1,5-3.6c1.4-1.6,2.6-3.4,3.3-5.4c0.8-2.2,1.2-4.4,1.2-6.7    c0-2.3-0.4-4.6-1.2-6.8c-0.8-2-1.9-3.9-3.4-5.5c-1.4-1.6-3.1-2.8-5-3.7C258.6,328.4,256.4,327.9,254.2,327.9L254.2,327.9z"/><path class="st5" d="M292.5,374.3v-58.4h18c2.5,0,4.6,0.1,6.3,0.2c1.5,0.1,3,0.3,4.5,0.5c2.1,0.4,4.1,1.2,5.8,2.5    c1.7,1.4,3.1,3.2,4,5.3c1,2.1,1.5,4.5,1.5,6.8c0,2.4-0.5,4.8-1.7,6.9c-1.2,2.1-2.9,3.8-5,5c6.4,2.2,9.6,6.7,9.6,13.6    c0,2.4-0.5,4.8-1.4,7c-0.9,2.1-2.2,4.1-3.9,5.6c-1,1-2.1,1.8-3.3,2.5c-1.2,0.7-2.5,1.2-3.8,1.5c-1.7,0.4-3.4,0.7-5.1,0.8    c-1.9,0.1-4.3,0.2-7,0.2L292.5,374.3z M306.8,338.2h5.3c1.7,0.1,3.4-0.3,4.8-1.1c1-0.9,1.6-2.2,1.5-3.5c0.1-1.3-0.4-2.6-1.5-3.4    c-1-0.7-2.6-1-4.9-1h-5.3V338.2z M306.8,361.2h7c5,0,7.4-1.8,7.5-5.5c0.1-1.5-0.5-3-1.8-3.9c-1.2-0.8-3.1-1.2-5.7-1.2h-7    L306.8,361.2z"/><path class="st5" d="M362.9,315.9h14.9v35.4c0,2.3-0.1,4.3-0.2,6c-0.1,1.5-0.3,3-0.6,4.4c-0.2,1.2-0.6,2.3-1.1,3.4    c-0.5,1-1.1,1.9-1.8,2.8c-1.9,2.4-4.4,4.4-7.2,5.6c-2.9,1.3-6.1,2-9.4,2c-2,0-4-0.3-6-0.8c-1.9-0.5-3.6-1.3-5.3-2.3    c-1.6-1-3-2.2-4.2-3.5c-1.2-1.3-2.1-2.9-2.7-4.6c-0.3-0.8-0.5-1.4-0.7-2.1c-0.2-0.6-0.3-1.2-0.4-1.8c-0.1-0.7-0.2-1.3-0.2-2    c0-0.7,0-1.6,0-2.7H354c0,1.8,0.4,3.6,1.2,5.2c1.5,1.9,4.3,2.1,6.2,0.6c0.2-0.2,0.4-0.4,0.6-0.7c0.7-1.1,1-3,1-5.7L362.9,315.9z"/></g></g></svg>