<?xml version="1.0" ?><svg id="Layer_1" style="enable-background:new 0 0 512 512;" version="1.1" viewBox="0 0 512 512" xml:space="preserve" xmlns="http://www.w3.org/2000/svg" xmlns:xlink="http://www.w3.org/1999/xlink"><style type="text/css">
	.st0{fill:#FFFFFF;}
	.st1{fill:#D3D0D0;}
	.st2{fill:#75E935;}
	.st3{fill:#5DD11E;}
	.st4{fill:#57C41C;}
	.st5{fill:#FFFFFF;}
</style><title/><g><path class="st0" d="M363.8,103.7v304.6c0,14.8-12,26.9-26.9,26.9H140.5c-14.8,0-26.9-12-26.9-26.9V163.9l87.1-87.1h136.1   C351.8,76.8,363.8,88.8,363.8,103.7z"/><path class="st1" d="M113.7,163.9l87.1-87.1v60.4c0,14.8-12,26.8-26.8,26.8H113.7z"/><polygon class="st1" points="363.8,309.1 363.8,400.4 196.6,400.4 140.2,385.4 113.7,385.4 113.7,324.1 140.2,324.1 140.2,324    196.6,309.1  "/><g><path class="st2" d="M390.7,389.6H196.6v-91.3h194.1c11.9,0,21.6,9.7,21.6,21.6V368C412.3,379.9,402.7,389.6,390.7,389.6z"/><polygon class="st3" points="196.6,389.6 140.2,374.6 140.2,313.2 196.6,298.3   "/><rect class="st2" height="61.4" width="40.5" x="99.7" y="313.3"/><polygon class="st4" points="99.7,313.3 113.7,304.9 113.7,313.3   "/><polygon class="st4" points="99.7,374.6 113.7,383 113.7,374.6   "/></g><g><path class="st5" d="M268.9,315.9h16.8l-17.9,27.6l20.2,30.8h-16.9l-12.6-20.7l-12,20.7h-16.6l20.4-31.1l-18-27.3h16.9l10,16.7    L268.9,315.9z"/><path class="st5" d="M292.2,374.3v-58.4h14.9v45.3h17.3v13.1H292.2z"/><path class="st5" d="M365.1,321.4c0.7,0.9,1.3,1.7,1.8,2.5c0.5,0.8,0.8,1.6,1.1,2.5c0.3,0.9,0.5,1.8,0.7,2.9    c0.1,1.1,0.3,2.3,0.4,3.7h-14.7c-0.3-2-0.9-3.4-1.7-4.3c-0.9-0.9-2.1-1.3-3.7-1.3c-1.4,0-2.6,0.4-3.7,1.3s-1.5,1.9-1.5,3.2    c0,2.3,1.7,4.3,5,5.8l7.2,3.2c4.9,2.2,8.4,4.6,10.5,7.2c2.1,2.6,3.1,5.8,3.1,9.6c0,5.7-1.8,10.1-5.4,13.2c-3.6,3.1-8.6,4.7-15,4.7    c-3.3,0-6.2-0.4-8.8-1.3c-2.6-0.8-4.8-2.1-6.7-3.7c-1.8-1.6-3.3-3.5-4.2-5.8c-1-2.3-1.5-4.8-1.5-7.7v-1.9h15    c0,2.5,0.5,4.4,1.6,5.8c1.1,1.4,2.6,2.1,4.4,2.1c1.6,0,3-0.5,4.1-1.6c1.1-1.1,1.7-2.4,1.7-4c0-1.3-0.5-2.5-1.5-3.5    c-1-1-2.6-1.9-4.8-2.8c-1.8-0.8-3.2-1.4-4.4-1.8c-1.1-0.4-1.9-0.8-2.4-1c-1.3-0.6-2.6-1.2-3.8-1.9c-1.2-0.7-2.3-1.4-3.3-2.2    c-1.8-1.5-3.3-3.3-4.3-5.4c-1.1-2.1-1.6-4.4-1.6-6.7c0-2.5,0.5-4.7,1.6-6.8c1.1-2.1,2.5-3.9,4.3-5.5c1.8-1.5,4-2.8,6.5-3.6    s5.2-1.3,8.1-1.3c3.2,0,6.1,0.6,9,1.8C361.1,317.8,363.4,319.4,365.1,321.4z"/></g></g></svg>